<?xml version="1.0" encoding="UTF-8" standalone="no"?>
<!-- Created with Inkscape (http://www.inkscape.org/) -->

<svg
   xmlns:dc="http://purl.org/dc/elements/1.1/"
   xmlns:cc="http://creativecommons.org/ns#"
   xmlns:rdf="http://www.w3.org/1999/02/22-rdf-syntax-ns#"
   xmlns:svg="http://www.w3.org/2000/svg"
   xmlns="http://www.w3.org/2000/svg"
   xmlns:sodipodi="http://sodipodi.sourceforge.net/DTD/sodipodi-0.dtd"
   xmlns:inkscape="http://www.inkscape.org/namespaces/inkscape"
   width="210mm"
   height="297mm"
   viewBox="0 0 744.09448819 1052.3622047"
   id="svg3452"
   version="1.1"
   inkscape:version="0.91 r13725"
   sodipodi:docname="animals.svg">
  <defs
     id="defs3454" />
  <sodipodi:namedview
     id="base"
     pagecolor="#ffffff"
     bordercolor="#666666"
     borderopacity="1.0"
     inkscape:pageopacity="0.0"
     inkscape:pageshadow="2"
     inkscape:zoom="0.35"
     inkscape:cx="-62.142857"
     inkscape:cy="520"
     inkscape:document-units="px"
     inkscape:current-layer="layer1"
     showgrid="false"
     inkscape:window-width="1077"
     inkscape:window-height="612"
     inkscape:window-x="398"
     inkscape:window-y="207"
     inkscape:window-maximized="0" />
  <metadata
     id="metadata3457">
    <rdf:RDF>
      <cc:Work
         rdf:about="">
        <dc:format>image/svg+xml</dc:format>
        <dc:type
           rdf:resource="http://purl.org/dc/dcmitype/StillImage" />
        <dc:title></dc:title>
      </cc:Work>
    </rdf:RDF>
  </metadata>
  <g
     inkscape:label="Layer 1"
     inkscape:groupmode="layer"
     id="layer1">
    <g
       transform="translate(67.743562,140.22142)"
       id="animal-lion"
       inkscape:label="#g236">
      <g
         id="tail">
        <path
           inkscape:connector-curvature="0"
           id="path3229"
           style="fill:#a05b2c;stroke:#010101;stroke-width:4"
           d="M 109.68,182.41 C 100.24,118.83 164.08,114.55 156.9,89.241 149.42,62.917 120.38,70.355 105.28,66.578 90.167,62.801 92.395,48.845 101.5,41.397 c 6.92,-5.666 63.55,-8.729 76.8,32.735 18.44,57.678 -45.33,52.878 -45.33,107.02 0,46.03 -22.03,1.26 -23.29,1.26 z" />
        <path
           inkscape:connector-curvature="0"
           id="path3334"
           style="fill:#010101;fill-opacity:0.3137"
           d="m 162.89,51.663 c 3.32,4.186 6.04,9.138 7.91,14.969 18.43,57.678 -45.32,52.888 -45.32,107.03 0,18.7 -3.66,22.4 -8.06,20.22 6.79,9.21 15.56,16.33 15.56,-12.72 0,-54.14 63.75,-49.35 45.32,-107.03 -3.13,-9.792 -8.67,-17.09 -15.41,-22.467 z" />
        <path
           inkscape:connector-curvature="0"
           id="path3197_3_"
           style="fill:#794522;stroke:#010101;stroke-width:4;stroke-linecap:round;stroke-linejoin:round"
           d="M 81.221,28.314 C 70.592,29.821 55.991,39.707 56.587,43.346 70.192,39.119 76.835,39.377 84.053,42.634 75.885,45.653 66.788,53.12 65.96,61.157 70.009,58.014 76.359,55.097 83.382,54.46 86.355,54.19 74.924,77.319 78.725,79.964 85.17,67.26 89.983,62.674 97.349,59.766 c -3.526,7.962 -4.505,19.691 0.684,25.885 0.546,-4.907 2.727,-11.199 6.847,-16.555 1.98,-2.558 17.66,20.835 21.79,18.738 -8.14,-11.688 -9.91,-18.098 -8.98,-25.963 5.35,6.873 15.21,13.284 23.13,11.642 -3.51,-2.415 -9.11,-7.515 -11.88,-12.512 -1.98,-3.572 26.26,-4.187 26.43,-8.814 -14.18,1.467 -20.64,-0.093 -27.07,-4.707 8.6,-1.353 18.99,-6.884 21.38,-14.601 -5.26,2.618 -13.42,4.35 -21.47,2.65 -1.95,-0.412 -3.9,-1.024 -5.79,-1.875 0,0 14.26,-22.523 10.38,-25.054 -6.07,12.89 -11.43,14.815 -18.71,17.94 3.29,-8.063 4.61,-17.015 -0.76,-23.053 -0.4,4.978 -2.44,11.421 -6.49,16.938 C 104.97,22.967 88.707,-0.068 84.643,2.151 93.129,13.594 95.081,19.948 94.393,27.838 88.844,21.127 78.789,15.009 70.93,16.884 c 6.124,3.961 13.009,11.045 10.291,11.43 z" />
      </g>
      <g
         id="body">
        <path
           inkscape:connector-curvature="0"
           id="path2383"
           style="fill:#a05b2c;stroke:#010101;stroke-width:2.20409989;stroke-linecap:round;stroke-linejoin:round"
           d="M 261.36,286.91 C 261.4,355.05 206.2,410.33 138.05,410.38 69.91,410.42 14.63,355.22 14.59,287.07 c -0.005,-0.05 -0.005,-0.11 -0.005,-0.16 -0.045,-68.15 55.16,-123.43 123.3,-123.47 68.15,-0.05 123.43,55.16 123.48,123.3 l 0,0.17 z" />
        <path
           inkscape:connector-curvature="0"
           id="path3339"
           style="fill:#010101;fill-opacity:0.3137"
           d="m 246.14,228.29 c 3.2,10.97 4.91,22.59 4.91,34.59 0,68.11 -55.27,123.38 -123.38,123.38 -46.822,0 -87.596,-26.14 -108.5,-64.6 15.025,51.2 62.369,88.63 118.41,88.63 68.11,0 123.37,-55.27 123.37,-123.38 0,-21.21 -5.37,-41.18 -14.81,-58.62 z" />
      </g>
      <g
         id="paws">
        <g
           id="g246">
          <path
             inkscape:connector-curvature="0"
             id="path3238"
             style="fill:#a05b2c;stroke:#010101;stroke-width:4;stroke-linecap:round;stroke-linejoin:round"
             d="m 131.99,406.84 c 0,21.54 -17.48,20.77 -39.029,20.77 -11.979,0 -22.705,0.24 -29.866,-3.25 -5.718,-2.79 -9.164,-7.96 -9.164,-17.52 0,-21.55 17.485,-39.03 39.03,-39.03 21.549,0 39.029,17.49 39.029,39.03 z" />
          <path
             inkscape:connector-curvature="0"
             id="path3332"
             style="fill:#010101;fill-opacity:0.3137"
             d="m 112.98,373.63 c 4.72,6.48 7.53,14.47 7.53,23.1 0,12.46 -5.84,23.55 -14.91,30.75 15.08,-0.58 25.91,-3.7 25.91,-20.63 0,-14.03 -7.41,-26.34 -18.53,-33.22 z" />
          <g
             id="g2469"
             transform="matrix(-1,0,0,1,652.48,-1.8279)">
            <path
               inkscape:connector-curvature="0"
               id="path2471"
               style="fill:none;stroke:#010101;stroke-width:4;stroke-linecap:round"
               d="m 544.83,427.3 c -3.5,-11.34 0.5,-24.56 0.5,-24.56" />
            <path
               inkscape:connector-curvature="0"
               id="path2473"
               style="fill:none;stroke:#010101;stroke-width:4;stroke-linecap:round"
               d="m 562.86,429.81 c 4.29,-18.25 -0.62,-32.73 -0.62,-32.73" />
            <path
               inkscape:connector-curvature="0"
               id="path2475"
               style="fill:none;stroke:#010101;stroke-width:4;stroke-linecap:round"
               d="m 581.11,427.92 c 8.81,-13.85 1.26,-25.18 1.26,-25.18" />
          </g>
        </g>
        <g
           id="g254">
          <path
             inkscape:connector-curvature="0"
             id="path3235"
             style="fill:#a05b2c;stroke:#010101;stroke-width:4;stroke-linecap:round;stroke-linejoin:round"
             d="m 222.01,406.84 c 0,21.54 -17.48,20.77 -39.03,20.77 -21.54,0 -39.03,0.77 -39.03,-20.77 0,-21.54 17.49,-39.03 39.03,-39.03 21.55,0 39.03,17.49 39.03,39.03 z" />
          <path
             inkscape:connector-curvature="0"
             id="path3327"
             style="fill:#010101;fill-opacity:0.3137"
             d="m 203.48,373.63 c 4.72,6.48 7.53,14.47 7.53,23.1 0,12.46 -5.84,23.55 -14.91,30.75 15.08,-0.58 25.91,-3.7 25.91,-20.63 0,-14.03 -7.41,-26.34 -18.53,-33.22 z" />
          <path
             inkscape:connector-curvature="0"
             id="path3349"
             style="fill:#010101;fill-opacity:0.3137"
             d="m 149.16,387.35 c -3.31,5.73 -5.21,12.41 -5.21,19.5 0,17.51 11.55,20.26 27.43,20.69 -15.78,-6.58 -23.8,-22.21 -22.22,-40.19 z" />
          <g
             id="g2508"
             transform="translate(-0.82294,-1.8279)">
            <path
               inkscape:connector-curvature="0"
               id="path2510"
               style="fill:none;stroke:#010101;stroke-width:4;stroke-linecap:round"
               d="m 169.85,427.3 c -3.5,-11.34 0.5,-24.56 0.5,-24.56" />
            <path
               inkscape:connector-curvature="0"
               id="path2512"
               style="fill:none;stroke:#010101;stroke-width:4;stroke-linecap:round"
               d="m 187.88,429.81 c 4.29,-18.25 -0.62,-32.73 -0.62,-32.73" />
            <path
               inkscape:connector-curvature="0"
               id="path2514"
               style="fill:none;stroke:#010101;stroke-width:4;stroke-linecap:round"
               d="m 206.13,427.92 c 8.81,-13.85 1.26,-25.18 1.26,-25.18" />
          </g>
        </g>
      </g>
      <g
         id="face">
        <g
           id="g264">
          <path
             inkscape:connector-curvature="0"
             id="path2479"
             style="fill:#794522;stroke:#010101;stroke-width:4;stroke-linecap:round;stroke-linejoin:round"
             d="m 66.742,153.97 c -14.965,0 -27.116,12.15 -27.116,27.12 0,9.68 5.088,18.17 12.733,22.97 -8.083,14.29 -12.733,30.78 -12.733,48.35 0,54.33 44.067,98.44 98.394,98.44 54.33,0 98.44,-44.11 98.44,-98.44 0,-17.57 -4.65,-34.06 -12.73,-48.35 7.63,-4.8 12.73,-13.3 12.73,-22.97 0,-14.97 -12.15,-27.12 -27.11,-27.12 -9.68,0 -18.13,5.11 -22.93,12.73 -14.3,-8.09 -30.81,-12.73 -48.4,-12.73 -17.58,0 -34.06,4.64 -48.351,12.73 -4.797,-7.62 -13.254,-12.73 -22.927,-12.73 z" />
          <path
             inkscape:connector-curvature="0"
             id="path2483"
             style="fill:#502e18;stroke:#010101;stroke-width:4;stroke-linecap:round;stroke-linejoin:round"
             d="m 209.67,165.47 c -5.44,0 -10.19,2.87 -12.9,7.15 8.32,5.6 15.48,12.76 21.08,21.08 4.27,-2.72 7.11,-7.51 7.11,-12.94 0,-8.43 -6.85,-15.29 -15.29,-15.29 z" />
          <path
             inkscape:connector-curvature="0"
             id="path2523"
             style="fill:#502e18;stroke:#010101;stroke-width:4;stroke-linecap:round;stroke-linejoin:round"
             d="m 66.674,165.47 c 5.438,0 10.188,2.87 12.897,7.15 -8.317,5.6 -15.478,12.76 -21.074,21.08 -4.269,-2.72 -7.113,-7.51 -7.113,-12.94 0,-8.43 6.853,-15.29 15.29,-15.29 z" />
          <path
             inkscape:connector-curvature="0"
             id="path2413_2_"
             style="opacity:0.98999999;fill:#794522;stroke:#010101;stroke-width:4;stroke-linecap:round;stroke-linejoin:round"
             d="m 210.79,190.94 c 8.12,-14 50.87,-14.82 53.78,-8.18 -21.46,6.02 -29.97,12.01 -36.67,22.43 13.29,-2.98 31.59,-0.92 39.52,8.93 -11.38,-0.97 -28.48,2.63 -40.11,14.57 12.32,3.2 26.58,4.07 31.46,16.21 -14.54,-2.94 -28.54,5.31 -28.54,5.31 14.71,-6.76 45.12,17.22 43.66,24.32 -21.01,-7.45 -31.41,-7.46 -42.9,-2.81 12.59,5.22 26.35,17.46 27.15,30.08 -8.74,-7.35 -24.78,-14.27 -41.18,-11.22 8.23,9.72 19.37,18.65 16.36,31.38 -10.18,-10.78 -27.23,-7.72 -27.23,-7.72 16.05,2.1 28.29,33.23 23.28,38.47 -13.83,-17.48 -22.64,-23.02 -34.84,-25.19 7.88,11.12 13.03,28.8 7,39.91 -3.49,-10.87 -13.4,-25.27 -28.91,-31.4 1.8,12.61 6.49,26.1 -2.83,35.28 -2.89,-14.55 -12.31,-26.94 -12.31,-26.94 -4.44,11.93 -4.77,35.02 -17.34,38.64 4.42,-14.16 -0.21,-22.62 -2.8,-32.69 0,0 -7.24,18.53 -2.83,32.69 -12.57,-3.62 -14.89,-26.71 -19.33,-38.64 0,0 -9.61,13.06 -12.71,27.56 -9.178,-9.32 -4.286,-22.74 -2.3,-35.31 -15.593,5.89 -25.721,20.14 -29.375,30.96 -5.866,-11.21 -0.45,-28.81 7.595,-39.81 -12.23,1.99 -21.119,7.4 -35.212,24.67 -4.927,-5.32 7.965,-40.19 24.046,-42.04 0,0 -14.425,0.78 -24.604,11.56 -3.009,-12.73 8.137,-21.66 16.361,-31.38 -16.392,-3.05 -32.441,3.87 -41.177,11.22 0.798,-12.62 14.562,-24.85 27.145,-30.08 -11.486,-4.65 -21.89,-4.64 -42.898,2.81 -1.454,-7.1 28.953,-31.08 43.661,-24.31 0,0 -13.398,-11.3 -28.168,-9.95 6.167,-11.53 20.436,-10.85 33.033,-12.7 -10.271,-13.13 -26.885,-18.56 -38.298,-18.83 8.948,-8.94 27.365,-9 40.259,-4.59 -5.539,-11.09 -13.344,-17.97 -34.025,-26.28 3.607,-6.29 46.022,-0.84 52.575,13.97" />
          <path
             inkscape:connector-curvature="0"
             id="path2413_5_"
             style="opacity:0.98999999;fill:#794522;stroke:#010101;stroke-width:4;stroke-linecap:round;stroke-linejoin:round"
             d="m 82.857,176.92 c -1.354,-10.3 -1.514,-20.43 -10.884,-31.93 13.012,-1.33 20.422,10.88 28.987,20.3 5.16,-15.85 0.38,-32.66 -5.77,-42.28 12.41,2.43 22.75,17.67 26.3,30.83 6.1,-10.79 7.44,-21.1 2.79,-42.9 4.14,-0.3 12.21,12.14 16.72,25.39 3.35,9.86 9.2,-25.91 16.43,-25.39 -4.65,21.8 -3.31,32.11 2.79,42.9 3.55,-13.16 13.89,-28.4 26.3,-30.83 -6.15,9.62 -10.93,26.43 -5.77,42.28 8.56,-9.42 15.97,-21.63 28.99,-20.3 -9.37,11.5 -9.53,21.63 -10.89,31.93" />
        </g>
        <path
           inkscape:connector-curvature="0"
           id="path2383_1_"
           style="fill:#a05b2c;stroke:#010101;stroke-width:2.20409989;stroke-linecap:round;stroke-linejoin:round"
           d="m 212.69,262.89 c 0.03,41.26 -33.4,74.74 -74.67,74.76 -41.264,0.03 -74.738,-33.4 -74.765,-74.66 l 0,-0.1 c -0.028,-41.27 33.401,-74.74 74.665,-74.77 41.26,-0.03 74.74,33.4 74.77,74.67 l 0,0.1 z" />
        <g
           id="g272">
          <g
             id="g3178"
             transform="translate(-2.5218,-5.0362)">
            <path
               inkscape:connector-curvature="0"
               id="path2400"
               style="fill:none;stroke:#010101;stroke-width:4.27129984;stroke-linecap:round;stroke-linejoin:round"
               d="m 194.7,276.53 c 5.23,19.48 -6.36,39.5 -25.88,44.72 -9.37,2.51 -19.36,1.2 -27.76,-3.65" />
            <path
               inkscape:connector-curvature="0"
               id="path3176"
               style="fill:none;stroke:#010101;stroke-width:4.27129984;stroke-linecap:round;stroke-linejoin:round"
               d="m 86.287,276.53 c -5.23,19.48 6.354,39.5 25.873,44.72 9.37,2.51 19.36,1.2 27.77,-3.65" />
          </g>
          <path
             inkscape:connector-curvature="0"
             id="path2397"
             style="fill:#010101"
             d="m 154.67,287.73 c 0,8.83 -9.67,15.99 -16.07,15.99 -6.89,0 -16.06,-7.16 -16.06,-15.99 0,-8.83 7.19,-11.08 16.06,-11.08 8.87,0 16.07,2.25 16.07,11.08 z" />
          <g
             id="g278">
            <path
               inkscape:connector-curvature="0"
               id="path2387"
               style="fill:#ffffff;stroke:#010101;stroke-width:9.93099976;stroke-linecap:round;stroke-linejoin:round"
               d="m 134.25,241.9 c 0.01,12.78 -10.35,23.15 -23.13,23.15 -12.773,0.01 -23.141,-10.34 -23.148,-23.12 l 0,-0.03 c -0.009,-12.78 10.344,-23.15 23.128,-23.15 12.77,-0.01 23.14,10.34 23.15,23.12 l 0,0.03 z" />
            <path
               inkscape:connector-curvature="0"
               id="path2393"
               style="fill:#010101"
               d="m 125.21,244.56 c 0,3.97 -3.21,7.18 -7.18,7.19 -3.97,0 -7.18,-3.21 -7.19,-7.18 l 0,-0.01 c 0,-3.96 3.21,-7.18 7.18,-7.18 3.97,-0.01 7.18,3.2 7.19,7.17 l 0,0.01 z" />
          </g>
          <g
             id="g282">
            <path
               inkscape:connector-curvature="0"
               id="path2391"
               style="fill:#ffffff;stroke:#010101;stroke-width:9.93099976;stroke-linecap:round;stroke-linejoin:round"
               d="m 187.97,241.9 c 0.01,12.78 -10.34,23.15 -23.12,23.15 -12.78,0.01 -23.15,-10.34 -23.15,-23.12 l 0,-0.03 c -0.01,-12.78 10.34,-23.15 23.12,-23.15 12.78,-0.01 23.14,10.34 23.15,23.12 l 0,0.03 z" />
            <path
               inkscape:connector-curvature="0"
               id="path2395"
               style="fill:#010101"
               d="m 164.57,244.56 c 0,3.97 -3.21,7.18 -7.18,7.19 -3.97,0 -7.18,-3.21 -7.19,-7.18 l 0,-0.01 c 0,-3.96 3.22,-7.18 7.18,-7.18 3.97,-0.01 7.18,3.2 7.19,7.17 l 0,0.01 z" />
          </g>
        </g>
        <g
           id="g286">
          <g
             id="g3188"
             transform="translate(0,-10.702)">
            <path
               inkscape:connector-curvature="0"
               id="path3182"
               style="fill:none;stroke:#010101;stroke-width:4;stroke-linecap:round"
               d="m 180.61,291.73 c 44.67,-16.61 66.5,3.89 66.5,3.89" />
            <path
               inkscape:connector-curvature="0"
               id="path3184"
               style="fill:none;stroke:#010101;stroke-width:4;stroke-linecap:round"
               d="m 174.2,302.87 c 31.64,-8.96 52.35,13.89 52.35,13.89" />
            <path
               inkscape:connector-curvature="0"
               id="path3186"
               style="fill:none;stroke:#010101;stroke-width:4;stroke-linecap:round"
               d="m 171.57,314.78 c 24.34,-2.58 33.66,19.12 33.66,19.12" />
          </g>
          <g
             id="g3193"
             transform="matrix(-1,0,0,1,651.56,-10.702)">
            <path
               inkscape:connector-curvature="0"
               id="path3195"
               style="fill:none;stroke:#010101;stroke-width:4;stroke-linecap:round"
               d="m 550.09,291.73 c 44.67,-16.61 66.5,3.89 66.5,3.89" />
            <path
               inkscape:connector-curvature="0"
               id="path3197_4_"
               style="fill:none;stroke:#010101;stroke-width:4;stroke-linecap:round"
               d="m 543.68,302.87 c 31.63,-8.96 52.35,13.89 52.35,13.89" />
            <path
               inkscape:connector-curvature="0"
               id="path3199"
               style="fill:none;stroke:#010101;stroke-width:4;stroke-linecap:round"
               d="m 541.05,314.78 c 24.34,-2.58 33.65,19.12 33.65,19.12" />
          </g>
        </g>
      </g>
    </g>
    <g
       transform="translate(438.43829,226.71931)"
       id="imagebot_2">
      <path
         style="fill:#3f7f00;stroke:#000000;stroke-width:3.28740001;stroke-linecap:round;stroke-linejoin:round"
         inkscape:connector-curvature="0"
         id="imagebot_20"
         d="M 232.23,169.32 C 232.25,229.83 183.2,278.89 122.69,278.89 62.185,278.89 13.14,229.83 13.16,169.32 13.138,108.81 62.185,59.75 122.69,59.75 c 60.51,0.002 109.56,49.06 109.54,109.57 z" />
      <path
         style="fill-opacity:0.31373004;stroke-width:4;stroke-linecap:round;stroke-linejoin:round"
         inkscape:connector-curvature="0"
         id="imagebot_19"
         d="m 454.19,523.12 c 0.07,1.69 0.12,3.4 0.12,5.1 0,60.46 -49.06,109.53 -109.53,109.53 -47.26,0 -87.59,-30 -102.94,-71.97 2.66,58.11 50.68,104.47 109.44,104.47 60.47,0 109.53,-49.07 109.53,-109.53 0,-13.2 -2.34,-25.87 -6.62,-37.6 z"
         transform="translate(-228.57953,-391.37963)" />
      <path
         style="fill:#6c5d53;fill-rule:evenodd;stroke:#000000;stroke-width:4;stroke-linejoin:round"
         inkscape:connector-curvature="0"
         id="imagebot_16"
         d="m 318.63,579.05 c 7.75,17.93 11.36,23.33 11.13,33.59 -0.1,4.67 9.19,-7.64 9.83,-13.79 -0.47,8.89 1.2,11.31 2.19,20.51 0.98,9.19 4.24,25.14 5.18,21.56 1.97,-7.42 2.89,-22.82 8.28,-27.58 2.44,9.2 14.92,24.63 12.86,18.74 -5,-14.29 -6.84,-21.15 -2.46,-30.05 7.84,9.52 12.32,13.45 10.81,8.13 -2.54,-8.98 1.08,-21.31 7.66,-26.51 8.36,-6.61 -65.48,-4.95 -65.48,-4.6 z"
         transform="translate(-228.57953,-391.37963)" />
      <path
         style="stroke-width:47.66699982;stroke-linecap:round;stroke-linejoin:round"
         inkscape:connector-curvature="0"
         id="imagebot_5"
         d="m 367.87,564.87 c -2.29,3.97 -6.5,5.84 -9.4,4.16 -2.89,-1.67 -3.38,-6.25 -1.09,-10.22 2.29,-3.97 6.5,-5.84 9.4,-4.16 2.9,1.67 3.38,6.25 1.09,10.22 z"
         transform="translate(-228.57953,-391.37963)" />
      <path
         style="stroke-width:47.66699982;stroke-linecap:round;stroke-linejoin:round"
         inkscape:connector-curvature="0"
         id="imagebot_4"
         d="m 335.13,564.87 c 2.29,3.97 6.5,5.84 9.4,4.16 2.89,-1.67 3.38,-6.25 1.09,-10.22 -2.29,-3.97 -6.5,-5.84 -9.4,-4.16 -2.9,1.67 -3.38,6.25 -1.09,10.22 z"
         transform="translate(-228.57953,-391.37963)" />
      <title
         id="title95">imagebot_2</title>
      <path
         style="fill:#f4c244;stroke:#000000;stroke-width:4.41179991;stroke-linecap:round;stroke-linejoin:round"
         inkscape:connector-curvature="0"
         id="imagebot_21"
         d="m 168.72,211.78 c -15.62,-3.97 -1.32,17.45 -3.72,25.2 -9.47,-6.37 -5.86,14.73 -10.14,20.59 -8.12,-0.6 -9.39,10.6 -15.05,13.88 -6.84,-5.19 -11.88,5.09 -18.41,5.09 -6.53,0 -10.4,-9.88 -18.42,-5.09 -5.66,-3.28 -6.926,-14.07 -15.042,-13.88 -4.283,-5.86 -3.622,-28.17 -10.145,-20.59 -2.396,-7.75 8.661,-30.78 -3.721,-25.2 0,-8.94 13.117,-25.52 3.721,-25.2 2.396,-7.74 14.412,-13.51 10.145,-20.58 8.566,-11.73 20.402,-18.98 33.462,-18.98 13.06,0 24.89,7.25 33.46,18.98 -6.33,4.24 7.75,12.84 10.14,20.58 -10.57,-0.72 3.72,16.26 3.72,25.2 z" />
      <path
         style="fill-opacity:0.31373004;stroke-width:4;stroke-linecap:round;stroke-linejoin:round"
         inkscape:connector-curvature="0"
         id="imagebot_60"
         d="m 454.19,523.12 c 0.07,1.69 0.12,3.4 0.12,5.1 0,60.46 -49.06,109.53 -109.53,109.53 -47.26,0 -87.59,-30 -102.94,-71.97 2.66,58.11 50.68,104.47 109.44,104.47 60.47,0 109.53,-49.07 109.53,-109.53 0,-13.2 -2.34,-25.87 -6.62,-37.6 z"
         transform="translate(-228.57953,-391.37963)" />
      <path
         style="fill:#3f7f00;fill-rule:evenodd;stroke:#000000;stroke-width:5"
         inkscape:connector-curvature="0"
         id="imagebot_61"
         d="m 199.52,495.56 c 32.23,12.78 -9.49,69.52 25.34,119.03 6.43,9.15 -38.77,1.54 -54.75,-49.17 -15.55,-49.32 -0.76,-79.41 29.41,-69.86 z"
         transform="translate(-161.18,-371.14)" />
      <path
         style="fill:#3f7f00;fill-rule:evenodd;stroke:#000000;stroke-width:5;stroke-linecap:round;stroke-linejoin:round"
         inkscape:connector-curvature="0"
         id="imagebot_62"
         d="m 244.69,488.43 c -10.71,-3.69 -21.77,6.07 -23.89,11.34 10.81,-2.76 15.78,-3.54 18.58,-1.1 -1.21,2.7 -13.93,5.39 -17.87,23.1 9.94,-6.9 17.84,-14.86 21.01,-11.59 -2.3,4.03 -4.96,11.6 -3.17,19.1 5.71,-7.54 11.55,-15.5 16.92,-15.71"
         transform="translate(-200.18,-370.14)" />
      <path
         style="fill:#3f7f00;fill-rule:evenodd;stroke:#000000;stroke-width:5"
         inkscape:connector-curvature="0"
         id="imagebot_63"
         d="m 199.52,495.19 c 32.23,12.97 -9.49,70.59 25.34,120.87 6.43,9.29 -38.77,1.57 -54.75,-49.93 -15.55,-50.08 -0.76,-80.64 29.41,-70.94 z"
         transform="matrix(-1,0,0,1,410.16,-373.14)" />
      <path
         style="fill:#3f7f00;fill-rule:evenodd;stroke:#000000;stroke-width:5;stroke-linecap:round;stroke-linejoin:round"
         inkscape:connector-curvature="0"
         id="imagebot_64"
         d="m 244.69,488.43 c -10.71,-3.69 -21.77,6.07 -23.89,11.34 10.81,-2.76 15.78,-3.54 18.58,-1.1 -1.21,2.7 -13.93,5.39 -17.87,23.1 9.94,-6.9 17.84,-14.86 21.01,-11.59 -2.3,4.03 -4.96,11.6 -3.17,19.1 5.71,-7.54 11.55,-15.5 16.92,-15.71"
         transform="matrix(-1,0,0,1,448.89,-370.14)" />
    </g>
    <g
       id="animal-dragon"
       inkscape:label="#g3920">
      <path
         style="fill:#6c5d53;stroke:#000000;stroke-width:4;stroke-linecap:round;stroke-linejoin:round"
         inkscape:connector-curvature="0"
         id="imagebot_39"
         d="m 569.30876,506.61968 c 0,9.09 14.67,9.38 32.74,9.38 18.07,0 32.73,0.69 32.73,-9.38 0,-17.72 -14.66,-32.1 -32.73,-32.1 -18.07,0 -32.74,14.38 -32.74,32.1 z" />
      <path
         style="fill-opacity:0.31373004;fill-rule:evenodd;stroke:#000000;stroke-width:4;stroke-linejoin:round"
         inkscape:connector-curvature="0"
         id="imagebot_41"
         d="m 614.63876,515.39968 c 0,-16.37 -9.44,-26.44 -9.44,-26.44 0,0 3.77,13.85 3.14,26.44 l 6.3,0 z" />
      <path
         style="fill:#3f7f00;stroke:#000000;stroke-width:4;stroke-linecap:round;stroke-linejoin:round"
         inkscape:connector-curvature="0"
         id="imagebot_42"
         d="m 558.46829,265.74431 c -30.128,0.61 -50.93,11.653 -63.624,28.75 -24.064,-2.588 -44.062,23.625 -44.062,23.625 0,0 18.89,9.45 32.062,1.531 -2.4,8.709 -3.562,18.109 -3.562,27.909 0,22.58 14.031,43.05 31.277,57.86 8.623,7.41 16.3,35.4 25.428,39.55 9.131,4.14 16.711,13.43 23.141,13.43 6.68,0 16.88,-10.29 25.56,-14.43 8.67,-4.15 18.82,-31.14 27.38,-38.55 17.12,-14.82 30.9,-35.28 30.9,-57.86 0,-9.8 -1.16,-19.2 -3.56,-27.909 13.17,7.919 32.03,-1.531 32.03,-1.531 0,0 -19.97,-26.205 -44.03,-23.625 -13.06,-17.595 -34.71,-28.75 -66.28,-28.75 -0.9,0 -1.78,-0.018 -2.66,0 z" />
      <path
         style="fill:#ffffff;stroke:#000000;stroke-width:4.00005579;stroke-linecap:round;stroke-linejoin:round"
         inkscape:connector-curvature="0"
         id="imagebot_43"
         d="m 557.50383,335.57242 c 0.003,12.51701 -10.14552,22.66757 -22.66505,22.66757 -12.51701,0 -22.66505,-10.15056 -22.66253,-22.66757 -0.003,-12.51953 10.14552,-22.67009 22.66253,-22.67009 12.51953,0 22.66757,10.15056 22.66505,22.67009 z" />
      <path
         style="fill:#ffffff;stroke:#000000;stroke-width:4.00005579;stroke-linecap:round;stroke-linejoin:round"
         inkscape:connector-curvature="0"
         id="imagebot_44"
         d="m 610.23604,335.57242 c 0.003,12.51701 -10.14553,22.66757 -22.66506,22.66757 -12.51701,0 -22.66505,-10.15056 -22.66253,-22.66757 -0.003,-12.51953 10.14552,-22.67009 22.66253,-22.67009 12.51953,0 22.66757,10.15056 22.66506,22.67009 z" />
      <path
         style="stroke-width:47.66699982;stroke-linecap:round;stroke-linejoin:round"
         inkscape:connector-curvature="0"
         id="imagebot_45"
         d="m 590.09005,339.57122 c 0.002,4.1723 -3.38097,7.5558 -7.55412,7.5558 -4.1723,0 -7.55495,-3.3835 -7.55412,-7.5558 -8.3e-4,-4.17314 3.38182,-7.55664 7.55412,-7.55664 4.17315,0 7.5558,3.3835 7.55412,7.55664 z" />
      <path
         style="stroke-width:47.66699982;stroke-linecap:round;stroke-linejoin:round"
         inkscape:connector-curvature="0"
         id="imagebot_46"
         d="m 548.05805,339.57122 c 0.002,4.1723 -3.38097,7.5558 -7.55412,7.5558 -4.1723,0 -7.55495,-3.3835 -7.55411,-7.5558 -8.4e-4,-4.17314 3.38181,-7.55664 7.55411,-7.55664 4.17315,0 7.5558,3.3835 7.55412,7.55664 z" />
      <path
         style="fill:#6c5d53;fill-rule:evenodd;stroke:#000000;stroke-width:4;stroke-linejoin:round"
         inkscape:connector-curvature="0"
         id="imagebot_47"
         d="m 582.61876,276.95968 c -1.99,-10.39 12.58,-36.42 42.7,-46.12 20.71,-6.67 55.98,1.23 59.32,41.23 -13.48,-23.04 -37.38,-28.54 -48.7,-23.05 -22.74,11.01 -12.48,34.47 -23.37,40.65 -10.13,5.76 -27.88,-1.94 -29.95,-12.71 z" />
      <path
         style="fill-opacity:0.31373004;stroke-width:4;stroke-linecap:round;stroke-linejoin:round"
         inkscape:connector-curvature="0"
         id="imagebot_48"
         d="m 639.68829,320.74431 -1.88,2.656 c 0.25,3.075 0.35,6.199 0.35,9.379 0,22.58 -13.78,43.04 -30.9,57.86 -8.57,7.4 -16.96,33.4 -25.89,37.54 -8.92,4.15 -15.38,11.44 -22.06,11.44 -5.17,0 -12.58,-6.49 -19.51,-9.22 -6.934,-2.74 -16.391,-26.74 -23.669,-31.76 -14.557,-10.05 -28.396,-24.19 -35.879,-40.61 3.808,20.12 18.351,37.21 34.905,49.28 8.277,6.03 9.806,32.8 19.748,36.07 9.945,3.26 17.295,13.02 23.225,13.02 6.68,0 23.32,-7.1 30.4,-10.96 7.08,-3.87 15.6,-34.49 24.04,-41.52 16.87,-14.07 30.4,-33.78 30.4,-56.36 0,-9.39 -1.07,-18.41 -3.28,-26.815 z" />
      <path
         style="fill:#6c5d53;stroke:#000000;stroke-width:4;stroke-linecap:round;stroke-linejoin:round"
         inkscape:connector-curvature="0"
         id="imagebot_49"
         d="m 554.31876,506.61968 c 0,9.09 -14.67,9.38 -32.74,9.38 -18.07,0 -32.74,0.69 -32.74,-9.38 0,-17.72 14.67,-32.1 32.74,-32.1 18.07,0 32.74,14.38 32.74,32.1 z" />
      <path
         style="fill-opacity:0.31373004;fill-rule:evenodd;stroke:#000000;stroke-width:4;stroke-linejoin:round"
         inkscape:connector-curvature="0"
         id="imagebot_50"
         d="m 508.98876,515.39968 c 0,-16.37 9.44,-26.44 9.44,-26.44 0,0 -3.77,13.85 -3.14,26.44 l -6.3,0 z" />
      <path
         style="stroke-width:47.66699982;stroke-linecap:round;stroke-linejoin:round"
         inkscape:connector-curvature="0"
         id="imagebot_51"
         d="m 575.72829,426.20931 c -2.29,3.97 -6.5,5.84 -9.4,4.16 -2.89,-1.67 -3.38,-6.25 -1.09,-10.22 2.29,-3.97 6.5,-5.84 9.4,-4.16 2.89,1.67 3.38,6.25 1.09,10.22 z" />
      <path
         style="stroke-width:47.66699982;stroke-linecap:round;stroke-linejoin:round"
         inkscape:connector-curvature="0"
         id="imagebot_52"
         d="m 543.98829,425.20931 c 2.29,3.97 6.5,5.84 9.4,4.16 2.89,-1.67 3.38,-6.25 1.09,-10.22 -2.29,-3.97 -6.5,-5.84 -9.4,-4.16 -2.89,1.67 -3.38,6.25 -1.09,10.22 z" />
      <path
         style="fill:#6c5d53;fill-rule:evenodd;stroke:#000000;stroke-width:4;stroke-linejoin:round"
         inkscape:connector-curvature="0"
         id="imagebot_53"
         d="m 542.45876,276.95968 c 2,-10.39 -12.58,-36.42 -42.69,-46.12 -20.72,-6.67 -55.98,1.23 -59.33,41.23 13.48,-23.04 37.38,-28.54 48.71,-23.05 22.73,11.01 12.48,34.47 23.36,40.65 10.13,5.76 27.89,-1.94 29.95,-12.71 z" />
    </g>
    <g
       id="animal-goat"
       transform="translate(-144.10857,238.19876)"
       inkscape:label="#layer1-3">
      <path
         inkscape:connector-curvature="0"
         id="path2383-6"
         style="fill:#c8beb7;stroke:#000000;stroke-width:3.28740001;stroke-linecap:round;stroke-linejoin:round"
         d="m 441.29,560.71 c 0.02,49.72 -40.29,90.04 -90.02,90.04 -49.72,0 -90.03,-40.32 -90.02,-90.04 -0.01,-49.73 40.3,-90.05 90.02,-90.05 49.73,0 90.04,40.32 90.02,90.05 z"
         transform="matrix(1.2168,0,0,1.2168,-76.15,-121.55)" />
      <path
         inkscape:connector-curvature="0"
         id="path3221"
         style="fill:#000000;fill-opacity:0.31373004"
         d="m 454.19,523.12 c 0.07,1.69 0.12,3.4 0.12,5.1 0,60.46 -49.06,109.53 -109.53,109.53 -47.26,0 -87.59,-30 -102.94,-71.97 2.66,58.11 50.68,104.47 109.44,104.47 60.47,0 109.53,-49.07 109.53,-109.53 0,-13.2 -2.34,-25.87 -6.62,-37.6 z" />
      <path
         inkscape:connector-curvature="0"
         id="path3172"
         style="fill:#6c5d53;stroke:#000000;stroke-width:4;stroke-linecap:round;stroke-linejoin:round"
         d="m 359.45,671.28 c 0,9.09 14.67,9.38 32.74,9.38 18.07,0 32.73,0.69 32.73,-9.38 0,-17.72 -14.66,-32.1 -32.73,-32.1 -18.07,0 -32.74,14.38 -32.74,32.1 z" />
      <path
         inkscape:connector-curvature="0"
         id="path3236"
         style="fill:#000000;fill-opacity:0.31373004"
         d="m 435.91,525.42 c 0,45.17 -55.12,81.84 -81.84,81.84 -25.72,0 -81.84,-36.67 -81.84,-81.84 0,-45.17 24.63,-81.84 81.84,-81.84 57.22,0 81.84,36.67 81.84,81.84 z" />
      <path
         inkscape:connector-curvature="0"
         id="path3203"
         style="fill:#6c5d53;fill-rule:evenodd;stroke:#000000;stroke-width:4;stroke-linejoin:round"
         d="m 318.63,579.05 c 7.75,17.93 11.36,23.33 11.13,33.59 -0.1,4.67 9.19,-7.64 9.83,-13.79 -0.47,8.88 1.2,11.31 2.18,20.51 0.99,9.19 4.25,25.14 5.2,21.56 1.96,-7.42 2.88,-22.82 8.27,-27.57 2.44,9.19 14.92,24.62 12.86,18.73 -5,-14.29 -6.84,-21.15 -2.46,-30.05 7.84,9.52 12.32,13.45 10.81,8.13 -2.54,-8.98 1.08,-21.31 7.66,-26.51 8.36,-6.61 -65.48,-4.95 -65.48,-4.6 z" />
      <path
         inkscape:connector-curvature="0"
         id="path3174"
         style="fill:#000000;fill-opacity:0.31373004;fill-rule:evenodd;stroke:#000000;stroke-width:4;stroke-linejoin:round"
         d="m 404.78,680.06 c 0,-16.37 -9.44,-26.44 -9.44,-26.44 0,0 3.77,13.85 3.14,26.44 l 6.3,0 z" />
      <path
         inkscape:connector-curvature="0"
         id="path3155"
         style="fill:#c8beb7;stroke:#000000;stroke-width:4;stroke-linecap:round;stroke-linejoin:round"
         d="M 108.88,46.344 C 78.746,46.954 57.943,57.997 45.25,75.094 21.186,72.506 1.188,98.719 1.188,98.719 c -5e-4,0 18.891,9.451 32.062,1.531 -2.399,8.71 -3.562,18.11 -3.562,27.91 0,45.17 56.125,81.84 81.842,81.84 26.72,0 81.85,-36.67 81.85,-81.84 0,-9.8 -1.17,-19.2 -3.57,-27.91 13.17,7.92 32.03,-1.531 32.03,-1.531 0,0 -19.97,-26.205 -44.03,-23.625 -13.06,-17.595 -34.71,-28.75 -66.28,-28.75 -0.89,0 -1.78,-0.018 -2.65,0 z"
         transform="translate(239.74,384.07)" />
      <path
         inkscape:connector-curvature="0"
         id="path3157"
         style="fill:#ffffff;stroke:#000000;stroke-width:15.88899994;stroke-linecap:round;stroke-linejoin:round"
         d="m 441.29,560.71 c 0.02,49.72 -40.29,90.04 -90.02,90.04 -49.72,0 -90.03,-40.32 -90.02,-90.04 -0.01,-49.73 40.3,-90.05 90.02,-90.05 49.73,0 90.04,40.32 90.02,90.05 z"
         transform="matrix(0.25175,0,0,0.25175,236.55,359.08)" />
      <path
         inkscape:connector-curvature="0"
         id="path3159"
         style="fill:#ffffff;stroke:#000000;stroke-width:15.88899994;stroke-linecap:round;stroke-linejoin:round"
         d="m 441.29,560.71 c 0.02,49.72 -40.29,90.04 -90.02,90.04 -49.72,0 -90.03,-40.32 -90.02,-90.04 -0.01,-49.73 40.3,-90.05 90.02,-90.05 49.73,0 90.04,40.32 90.02,90.05 z"
         transform="matrix(0.25175,0,0,0.25175,289.28,359.08)" />
      <path
         inkscape:connector-curvature="0"
         id="path3161"
         style="fill:#000000"
         d="m 441.29,560.71 c 0.02,49.72 -40.29,90.04 -90.02,90.04 -49.72,0 -90.03,-40.32 -90.02,-90.04 -0.01,-49.73 40.3,-90.05 90.02,-90.05 49.73,0 90.04,40.32 90.02,90.05 z"
         transform="matrix(0.083916,0,0,0.083916,343.2,457.18)" />
      <path
         inkscape:connector-curvature="0"
         id="path3163"
         style="fill:#000000"
         d="m 441.29,560.71 c 0.02,49.72 -40.29,90.04 -90.02,90.04 -49.72,0 -90.03,-40.32 -90.02,-90.04 -0.01,-49.73 40.3,-90.05 90.02,-90.05 49.73,0 90.04,40.32 90.02,90.05 z"
         transform="matrix(0.083916,0,0,0.083916,301.17,457.18)" />
      <path
         inkscape:connector-curvature="0"
         id="path3179"
         style="fill:#6c5d53;fill-rule:evenodd;stroke:#000000;stroke-width:4;stroke-linejoin:round"
         d="m 372.76,441.62 c -1.99,-10.39 12.58,-36.41 42.7,-46.12 20.71,-6.68 55.97,1.23 59.32,41.23 -13.48,-23.04 -37.38,-28.54 -48.7,-23.05 -22.74,11.01 -12.48,34.47 -23.37,40.65 -10.13,5.76 -27.88,-1.94 -29.95,-12.71 z" />
      <path
         inkscape:connector-curvature="0"
         id="path3231"
         style="fill:#000000;fill-opacity:0.31373004"
         d="m 190.09,101.34 -1.87,2.66 c 0.25,3.08 0.34,6.2 0.34,9.38 0,45.17 -55.12,81.84 -81.84,81.84 -20.707,0 -61.098,-23.76 -76.064,-56.6 7.616,40.25 57.172,71.38 80.874,71.38 26.72,0 81.85,-36.67 81.85,-81.84 0,-9.4 -1.08,-18.41 -3.29,-26.82 z"
         transform="translate(239.74,384.07)" />
      <path
         inkscape:connector-curvature="0"
         id="path3329"
         style="fill:#6c5d53;stroke:#000000;stroke-width:4;stroke-linecap:round;stroke-linejoin:round"
         d="m 344.46,671.28 c 0,9.09 -14.67,9.38 -32.74,9.38 -18.07,0 -32.73,0.69 -32.73,-9.38 0,-17.72 14.66,-32.1 32.73,-32.1 18.07,0 32.74,14.38 32.74,32.1 z" />
      <path
         inkscape:connector-curvature="0"
         id="path3331"
         style="fill:#000000;fill-opacity:0.31373004;fill-rule:evenodd;stroke:#000000;stroke-width:4;stroke-linejoin:round"
         d="m 299.13,680.06 c 0,-16.37 9.44,-26.44 9.44,-26.44 0,0 -3.77,13.85 -3.14,26.44 l -6.3,0 z" />
      <path
         inkscape:connector-curvature="0"
         id="path2398"
         style="fill:#000000"
         d="m 367.87,564.87 c -2.29,3.97 -6.5,5.84 -9.4,4.16 -2.89,-1.67 -3.38,-6.25 -1.09,-10.22 2.29,-3.97 6.5,-5.84 9.4,-4.16 2.89,1.67 3.38,6.24 1.09,10.22 z" />
      <path
         inkscape:connector-curvature="0"
         id="path2412"
         style="fill:#000000"
         d="m 335.13,564.87 c 2.29,3.97 6.5,5.84 9.4,4.16 2.89,-1.67 3.38,-6.25 1.09,-10.22 -2.29,-3.97 -6.5,-5.84 -9.4,-4.16 -2.89,1.67 -3.38,6.24 -1.09,10.22 z" />
      <path
         inkscape:connector-curvature="0"
         id="path3173"
         style="fill:#6c5d53;fill-rule:evenodd;stroke:#000000;stroke-width:4;stroke-linejoin:round"
         d="m 332.6,441.62 c 2,-10.39 -12.58,-36.41 -42.69,-46.12 -20.72,-6.68 -55.98,1.23 -59.33,41.23 13.48,-23.04 37.38,-28.54 48.71,-23.05 22.73,11.01 12.48,34.47 23.36,40.65 10.13,5.76 27.89,-1.94 29.95,-12.71 z" />
    </g>
  </g>
</svg>
